<?xml version="1.0" encoding="UTF-8"?>
<svg width="274pt" version="1.1" xmlns="http://www.w3.org/2000/svg" height="223pt" viewBox="0 0 274 223" xmlns:xlink="http://www.w3.org/1999/xlink">
 <defs>
  <clipPath id="Clip0">
   <path d="M0 0 L0 222.178 L273.39 222.178 L273.39 0 L0 0 Z" transform="translate(0, 0.822266)"/>
  </clipPath>
 </defs>
 <g id="Fond de page">
  <g id="Groupe 1" clip-path="url(#Clip0)">
   <path style="fill:#60addb; fill-rule:nonzero;stroke:none;" d="M85.9795 222.178 C54.3047 222.178 24.8223 212.893 0 196.979 C4.3877 197.497 8.85254 197.762 13.3799 197.762 C39.6582 197.762 63.8428 188.795 83.0391 173.752 C58.4951 173.299 37.7813 157.083 30.6436 134.799 C34.0684 135.454 37.582 135.805 41.1963 135.805 C46.3115 135.805 51.2666 135.12 55.9736 133.838 C30.3145 128.686 10.9805 106.016 10.9805 78.8398 C10.9805 78.6035 10.9814 78.3691 10.9854 78.1347 C18.5479 82.3359 27.1963 84.8593 36.3906 85.1504 C21.3408 75.0918 11.4385 57.9238 11.4385 38.4648 C11.4385 28.1855 14.2041 18.5507 19.0322 10.2666 C46.6963 44.2011 88.0254 66.5312 134.641 68.8701 C133.685 64.7646 133.188 60.4843 133.188 56.0879 C133.188 25.1132 158.302 0 189.279 0 C205.411 0 219.988 6.81152 230.22 17.7129 C242.996 15.1972 255 10.5293 265.837 4.10156 C261.649 17.1992 252.756 28.1914 241.175 35.1328 C252.521 33.7773 263.331 30.7617 273.39 26.3007 C265.87 37.5488 256.36 47.4277 245.402 55.3359 C245.51 57.7412 245.564 60.1601 245.564 62.5918 C245.564 136.711 189.148 222.178 85.9795 222.178 " transform="translate(0, 0.822266)"/>
  </g>
 </g>
</svg>
