<?xml version="1.0" encoding="UTF-8"?>
<svg width="138pt" version="1.1" xmlns="http://www.w3.org/2000/svg" height="161pt" viewBox="0 0 138 161" xmlns:xlink="http://www.w3.org/1999/xlink">
 <defs>
  <clipPath id="Clip0">
   <path d="M0 0 L0 160.23 L137.731 160.23 L137.731 0 L0 0 Z" transform="translate(0, 0.769531)"/>
  </clipPath>
  <clipPath id="Clip1">
   <path d="M9.8818 52.9951 C9.8818 52.9951 0 37.7031 12.5439 25.0927 C12.5439 25.0927 16.9345 20.2529 29.4782 17.0683 C29.4782 17.0683 42.0222 14.3935 48.7972 0 C48.7972 0 62.8452 19.6162 54.2042 45.4375 C54.2042 45.4375 49.9262 57.0644 41.0062 62.372 C34.2772 66.3769 24.0852 67.6367 13.4218 57.1923 C13.4218 57.1923 45.6602 39.5293 46.8632 24.5771 C46.8632 24.5771 36.9632 46.833 9.8818 52.9951 Z" transform="translate(80.7178, 4.41016)"/>
  </clipPath>
 </defs>
 <g id="Fond de page">
  <g id="Groupe 1" clip-path="url(#Clip0)">
   <path style="fill:#f59a1a; fill-rule:nonzero;stroke:none;" d="M14.3037 0 C14.3037 0 33.2422 12.5567 36.5039 47.0752 C36.5039 47.0752 42.9014 129.999 0 146.259 C0 146.259 3.8379 146.973 8.166 146.77 C8.166 146.77 61.2155 113.311 36.8799 48.3496 C36.8799 48.3496 29.6045 25.6768 14.3037 0 Z" transform="translate(48.6045, 0.769531)"/>
   <g id="Groupe 2" clip-path="url(#Clip1)">
    <path style="fill:#f49828; fill-rule:evenodd;stroke:none;" d="M7.62941e-06 95.4043 L0 0 L138 0 L138 95.4043 L7.62941e-06 95.4043 Z" transform="translate(-1.52588e-05, 65.5957)"/>
    <path style="fill:#f49828; fill-rule:evenodd;stroke:none;" d="M0 0.3543 L0 0 L138 0 L138 0.3543 L0 0.3543 Z" transform="translate(-1.52588e-05, 65.2414)"/>
    <path style="fill:#f49828; fill-rule:evenodd;stroke:none;" d="M0 0.3543 L0 0 L138 0 L138 0.3543 L0 0.3543 Z" transform="translate(-1.52588e-05, 64.8871)"/>
    <path style="fill:#f49828; fill-rule:evenodd;stroke:none;" d="M0 0.3543 L0 0 L138 0 L138 0.3543 L0 0.3543 Z" transform="translate(-1.52588e-05, 64.5328)"/>
    <path style="fill:#f49828; fill-rule:evenodd;stroke:none;" d="M0 0.3543 L0 0 L138 0 L138 0.3543 L0 0.3543 Z" transform="translate(-1.52588e-05, 64.1785)"/>
    <path style="fill:#f49828; fill-rule:evenodd;stroke:none;" d="M0 0.3543 L0 0 L138 0 L138 0.3543 L0 0.3543 Z" transform="translate(-1.52588e-05, 63.8242)"/>
    <path style="fill:#f49828; fill-rule:evenodd;stroke:none;" d="M0 0.3543 L0 0 L138 0 L138 0.3543 L0 0.3543 Z" transform="translate(-1.52588e-05, 63.4699)"/>
    <path style="fill:#f49828; fill-rule:evenodd;stroke:none;" d="M0 0.3543 L0 0 L138 0 L138 0.3543 L0 0.3543 Z" transform="translate(-1.52588e-05, 63.1156)"/>
    <path style="fill:#f49828; fill-rule:evenodd;stroke:none;" d="M0 0.3543 L0 0 L138 0 L138 0.3543 L0 0.3543 Z" transform="translate(-1.52588e-05, 62.7613)"/>
    <path style="fill:#f49828; fill-rule:evenodd;stroke:none;" d="M0 0.3543 L0 0 L138 0 L138 0.3543 L0 0.3543 Z" transform="translate(-1.52588e-05, 62.407)"/>
    <path style="fill:#f49828; fill-rule:evenodd;stroke:none;" d="M0 0.3543 L0 0 L138 0 L138 0.3543 L0 0.3543 Z" transform="translate(-1.52588e-05, 62.0527)"/>
    <path style="fill:#f49828; fill-rule:evenodd;stroke:none;" d="M0 0.3543 L0 0 L138 0 L138 0.3543 L0 0.3543 Z" transform="translate(-1.52588e-05, 61.6984)"/>
    <path style="fill:#f49828; fill-rule:evenodd;stroke:none;" d="M0 0.3543 L0 0 L138 0 L138 0.3543 L0 0.3543 Z" transform="translate(-1.52588e-05, 61.3441)"/>
    <path style="fill:#f49828; fill-rule:evenodd;stroke:none;" d="M0 0.3543 L0 0 L138 0 L138 0.3543 L0 0.3543 Z" transform="translate(-1.52588e-05, 60.9898)"/>
    <path style="fill:#f49828; fill-rule:evenodd;stroke:none;" d="M0 0.3543 L0 0 L138 0 L138 0.3543 L0 0.3543 Z" transform="translate(-1.52588e-05, 60.6355)"/>
    <path style="fill:#f49828; fill-rule:evenodd;stroke:none;" d="M0 0.3543 L0 0 L138 0 L138 0.3543 L0 0.3543 Z" transform="translate(-1.52588e-05, 60.2812)"/>
    <path style="fill:#f49828; fill-rule:evenodd;stroke:none;" d="M0 0.3543 L0 0 L138 0 L138 0.3543 L0 0.3543 Z" transform="translate(-1.52588e-05, 59.9269)"/>
    <path style="fill:#f49828; fill-rule:evenodd;stroke:none;" d="M0 0.3544 L0 0.0001 L138 0 L138 0.3544 L0 0.3544 Z" transform="translate(-1.52588e-05, 59.5725)"/>
    <path style="fill:#f49828; fill-rule:evenodd;stroke:none;" d="M0 0.3544 L0 0.0001 L138 0 L138 0.3543 L0 0.3544 Z" transform="translate(-1.52588e-05, 59.2182)"/>
    <path style="fill:#f49828; fill-rule:evenodd;stroke:none;" d="M0 0.3544 L0 0 L138 0 L138 0.3543 L0 0.3544 Z" transform="translate(-1.52588e-05, 58.8639)"/>
    <path style="fill:#f49828; fill-rule:evenodd;stroke:none;" d="M0 0.3543 L0 0 L138 0 L138 0.3543 L0 0.3543 Z" transform="translate(-1.52588e-05, 58.5096)"/>
    <path style="fill:#f49828; fill-rule:evenodd;stroke:none;" d="M0 0.3543 L0 0 L138 0 L138 0.3543 L0 0.3543 Z" transform="translate(-1.52588e-05, 58.1553)"/>
    <path style="fill:#f49828; fill-rule:evenodd;stroke:none;" d="M0 0.3543 L0 0 L138 0 L138 0.3543 L0 0.3543 Z" transform="translate(-1.52588e-05, 57.801)"/>
    <path style="fill:#f49828; fill-rule:evenodd;stroke:none;" d="M0 0.3543 L0 0 L138 0 L138 0.3543 L0 0.3543 Z" transform="translate(-1.52588e-05, 57.4467)"/>
    <path style="fill:#f49828; fill-rule:evenodd;stroke:none;" d="M0 0.3543 L0 0 L138 0 L138 0.3543 L0 0.3543 Z" transform="translate(-1.52588e-05, 57.0924)"/>
    <path style="fill:#f49828; fill-rule:evenodd;stroke:none;" d="M0 0.3543 L0 0 L138 0 L138 0.3543 L0 0.3543 Z" transform="translate(-1.52588e-05, 56.7381)"/>
    <path style="fill:#f49828; fill-rule:evenodd;stroke:none;" d="M0 0.3543 L0 0 L138 0 L138 0.3543 L0 0.3543 Z" transform="translate(-1.52588e-05, 56.3838)"/>
    <path style="fill:#f49828; fill-rule:evenodd;stroke:none;" d="M0 0.3543 L0 0 L138 0 L138 0.3543 L0 0.3543 Z" transform="translate(-1.52588e-05, 56.0295)"/>
    <path style="fill:#f49828; fill-rule:evenodd;stroke:none;" d="M0 0.3543 L0 0 L138 0 L138 0.3543 L0 0.3543 Z" transform="translate(-1.52588e-05, 55.6752)"/>
    <path style="fill:#f49828; fill-rule:evenodd;stroke:none;" d="M0 0.3543 L0 0 L138 0 L138 0.3543 L0 0.3543 Z" transform="translate(-1.52588e-05, 55.3209)"/>
    <path style="fill:#f49828; fill-rule:evenodd;stroke:none;" d="M0 0.3543 L0 0 L138 0 L138 0.3543 L0 0.3543 Z" transform="translate(-1.52588e-05, 54.9666)"/>
    <path style="fill:#f49828; fill-rule:evenodd;stroke:none;" d="M0 0.3543 L0 0 L138 0 L138 0.3543 L0 0.3543 Z" transform="translate(-1.52588e-05, 54.6123)"/>
    <path style="fill:#f49828; fill-rule:evenodd;stroke:none;" d="M0 0.3543 L0 0 L138 0 L138 0.3543 L0 0.3543 Z" transform="translate(-1.52588e-05, 54.258)"/>
    <path style="fill:#f49828; fill-rule:evenodd;stroke:none;" d="M0 0.3543 L0 0 L138 0 L138 0.3543 L0 0.3543 Z" transform="translate(-1.52588e-05, 53.9037)"/>
    <path style="fill:#f49828; fill-rule:evenodd;stroke:none;" d="M0 0.3543 L0 0 L138 0 L138 0.3543 L0 0.3543 Z" transform="translate(-1.52588e-05, 53.5494)"/>
    <path style="fill:#f49828; fill-rule:evenodd;stroke:none;" d="M0 0.3543 L0 0 L138 0 L138 0.3543 L0 0.3543 Z" transform="translate(-1.52588e-05, 53.1951)"/>
    <path style="fill:#f49828; fill-rule:evenodd;stroke:none;" d="M0 0.3543 L0 0 L138 0 L138 0.3543 L0 0.3543 Z" transform="translate(-1.52588e-05, 52.8408)"/>
    <path style="fill:#f49828; fill-rule:evenodd;stroke:none;" d="M0 0.3543 L0 0 L138 0 L138 0.3543 L0 0.3543 Z" transform="translate(-1.52588e-05, 52.4865)"/>
    <path style="fill:#f49828; fill-rule:evenodd;stroke:none;" d="M0 0.3543 L0 0 L138 0 L138 0.3543 L0 0.3543 Z" transform="translate(-1.52588e-05, 52.1322)"/>
    <path style="fill:#f49828; fill-rule:evenodd;stroke:none;" d="M0 0.3543 L0 0 L138 0 L138 0.3543 L0 0.3543 Z" transform="translate(-1.52588e-05, 51.7779)"/>
    <path style="fill:#f49828; fill-rule:evenodd;stroke:none;" d="M0 0.3543 L0 0 L138 0 L138 0.3543 L0 0.3543 Z" transform="translate(-1.52588e-05, 51.4236)"/>
    <path style="fill:#f49828; fill-rule:evenodd;stroke:none;" d="M0 0.3543 L0 0 L138 0 L138 0.3543 L0 0.3543 Z" transform="translate(-1.52588e-05, 51.0693)"/>
    <path style="fill:#f49828; fill-rule:evenodd;stroke:none;" d="M0 0.3543 L0 0 L138 0 L138 0.3543 L0 0.3543 Z" transform="translate(-1.52588e-05, 50.715)"/>
    <path style="fill:#f49828; fill-rule:evenodd;stroke:none;" d="M0 0.3543 L0 0 L138 0 L138 0.3543 L0 0.3543 Z" transform="translate(-1.52588e-05, 50.3607)"/>
    <path style="fill:#f49828; fill-rule:evenodd;stroke:none;" d="M0 0.3543 L0 0 L138 0 L138 0.3543 L0 0.3543 Z" transform="translate(-1.52588e-05, 50.0064)"/>
    <path style="fill:#f49828; fill-rule:evenodd;stroke:none;" d="M0 0.3543 L0 0 L138 0 L138 0.3543 L0 0.3543 Z" transform="translate(-1.52588e-05, 49.6521)"/>
    <path style="fill:#f49828; fill-rule:evenodd;stroke:none;" d="M0 0.3543 L0 0 L138 0 L138 0.3543 L0 0.3543 Z" transform="translate(-1.52588e-05, 49.2978)"/>
    <path style="fill:#f49828; fill-rule:evenodd;stroke:none;" d="M0 0.3543 L0 0 L138 0 L138 0.3543 L0 0.3543 Z" transform="translate(-1.52588e-05, 48.9435)"/>
    <path style="fill:#f49828; fill-rule:evenodd;stroke:none;" d="M0 0.3544 L0 0.0001 L138 0 L138 0.3544 L0 0.3544 Z" transform="translate(-1.52588e-05, 48.5891)"/>
    <path style="fill:#f49828; fill-rule:evenodd;stroke:none;" d="M0 0.3544 L0 0.0001 L138 0 L138 0.3543 L0 0.3544 Z" transform="translate(-1.52588e-05, 48.2348)"/>
    <path style="fill:#f49828; fill-rule:evenodd;stroke:none;" d="M0 0.3544 L0 0.0001 L138 0 L138 0.3543 L0 0.3544 Z" transform="translate(-1.52588e-05, 47.8805)"/>
    <path style="fill:#f49828; fill-rule:evenodd;stroke:none;" d="M0 0.3544 L0 0 L138 0 L138 0.3543 L0 0.3544 Z" transform="translate(-1.52588e-05, 47.5262)"/>
    <path style="fill:#f49828; fill-rule:evenodd;stroke:none;" d="M0 0.3543 L0 0 L138 0 L138 0.3543 L0 0.3543 Z" transform="translate(-1.52588e-05, 47.1719)"/>
    <path style="fill:#f49828; fill-rule:evenodd;stroke:none;" d="M0 0.3543 L0 0 L138 0 L138 0.3543 L0 0.3543 Z" transform="translate(-1.52588e-05, 46.8176)"/>
    <path style="fill:#f49828; fill-rule:evenodd;stroke:none;" d="M0 0.3543 L0 0 L138 0 L138 0.3543 L0 0.3543 Z" transform="translate(-1.52588e-05, 46.4633)"/>
    <path style="fill:#f49828; fill-rule:evenodd;stroke:none;" d="M0 0.3543 L0 0 L138 0 L138 0.3543 L0 0.3543 Z" transform="translate(-1.52588e-05, 46.109)"/>
    <path style="fill:#f49828; fill-rule:evenodd;stroke:none;" d="M0 0.3543 L0 0 L138 0 L138 0.3543 L0 0.3543 Z" transform="translate(-1.52588e-05, 45.7547)"/>
    <path style="fill:#f49828; fill-rule:evenodd;stroke:none;" d="M0 0.3543 L0 0 L138 0 L138 0.3543 L0 0.3543 Z" transform="translate(-1.52588e-05, 45.4004)"/>
    <path style="fill:#f49828; fill-rule:evenodd;stroke:none;" d="M0 0.3543 L0 0 L138 0 L138 0.3543 L0 0.3543 Z" transform="translate(-1.52588e-05, 45.0461)"/>
    <path style="fill:#f49828; fill-rule:evenodd;stroke:none;" d="M0 0.3543 L0 0 L138 0 L138 0.3543 L0 0.3543 Z" transform="translate(-1.52588e-05, 44.6918)"/>
    <path style="fill:#f49828; fill-rule:evenodd;stroke:none;" d="M0 0.3543 L0 0 L138 0 L138 0.3543 L0 0.3543 Z" transform="translate(-1.52588e-05, 44.3375)"/>
    <path style="fill:#f49828; fill-rule:evenodd;stroke:none;" d="M0 0.3543 L0 0 L138 0 L138 0.3543 L0 0.3543 Z" transform="translate(-1.52588e-05, 43.9832)"/>
    <path style="fill:#f49828; fill-rule:evenodd;stroke:none;" d="M0 0.3543 L0 0 L138 0 L138 0.3543 L0 0.3543 Z" transform="translate(-1.52588e-05, 43.6289)"/>
    <path style="fill:#f49828; fill-rule:evenodd;stroke:none;" d="M0 0.3543 L0 0 L138 0 L138 0.3543 L0 0.3543 Z" transform="translate(-1.52588e-05, 43.2746)"/>
    <path style="fill:#f49828; fill-rule:evenodd;stroke:none;" d="M0 0.3543 L0 0 L138 0 L138 0.3543 L0 0.3543 Z" transform="translate(-1.52588e-05, 42.9203)"/>
    <path style="fill:#f49828; fill-rule:evenodd;stroke:none;" d="M0 0.3543 L0 0 L138 0 L138 0.3543 L0 0.3543 Z" transform="translate(-1.52588e-05, 42.566)"/>
    <path style="fill:#f49828; fill-rule:evenodd;stroke:none;" d="M0 0.3543 L0 0 L138 0 L138 0.3543 L0 0.3543 Z" transform="translate(-1.52588e-05, 42.2117)"/>
    <path style="fill:#f49828; fill-rule:evenodd;stroke:none;" d="M0 0.3543 L0 0 L138 0 L138 0.3543 L0 0.3543 Z" transform="translate(-1.52588e-05, 41.8574)"/>
    <path style="fill:#f49828; fill-rule:evenodd;stroke:none;" d="M0 0.3543 L0 0 L138 0 L138 0.3543 L0 0.3543 Z" transform="translate(-1.52588e-05, 41.5031)"/>
    <path style="fill:#f49828; fill-rule:evenodd;stroke:none;" d="M0 0.3543 L0 0 L138 0 L138 0.3543 L0 0.3543 Z" transform="translate(-1.52588e-05, 41.1488)"/>
    <path style="fill:#f49828; fill-rule:evenodd;stroke:none;" d="M0 0.3543 L0 0 L138 0 L138 0.3543 L0 0.3543 Z" transform="translate(-1.52588e-05, 40.7945)"/>
    <path style="fill:#f49828; fill-rule:evenodd;stroke:none;" d="M0 0.3543 L0 0 L138 0 L138 0.3543 L0 0.3543 Z" transform="translate(-1.52588e-05, 40.4402)"/>
    <path style="fill:#f49828; fill-rule:evenodd;stroke:none;" d="M0 0.3543 L0 0 L138 0 L138 0.3543 L0 0.3543 Z" transform="translate(-1.52588e-05, 40.0859)"/>
    <path style="fill:#f49828; fill-rule:evenodd;stroke:none;" d="M0 0.3543 L0 0 L138 0 L138 0.3543 L0 0.3543 Z" transform="translate(-1.52588e-05, 39.7316)"/>
    <path style="fill:#f49828; fill-rule:evenodd;stroke:none;" d="M0 0.3543 L0 0 L138 0 L138 0.3543 L0 0.3543 Z" transform="translate(-1.52588e-05, 39.3773)"/>
    <path style="fill:#f49828; fill-rule:evenodd;stroke:none;" d="M0 0.3543 L0 0 L138 0 L138 0.3543 L0 0.3543 Z" transform="translate(-1.52588e-05, 39.023)"/>
    <path style="fill:#f49828; fill-rule:evenodd;stroke:none;" d="M0 0.3543 L0 0 L138 0 L138 0.3543 L0 0.3543 Z" transform="translate(-1.52588e-05, 38.6687)"/>
    <path style="fill:#f49828; fill-rule:evenodd;stroke:none;" d="M0 0.3543 L0 0 L138 0 L138 0.3543 L0 0.3543 Z" transform="translate(-1.52588e-05, 38.3144)"/>
    <path style="fill:#f49828; fill-rule:evenodd;stroke:none;" d="M0 0.3543 L0 0 L138 0 L138 0.3543 L0 0.3543 Z" transform="translate(-1.52588e-05, 37.9601)"/>
    <path style="fill:#f49828; fill-rule:evenodd;stroke:none;" d="M0 0.3543 L0 0 L138 0 L138 0.3543 L0 0.3543 Z" transform="translate(-1.52588e-05, 37.6058)"/>
    <path style="fill:#f49828; fill-rule:evenodd;stroke:none;" d="M0 0.3544 L0 0.0001 L138 0 L138 0.3544 L0 0.3544 Z" transform="translate(-1.52588e-05, 37.2514)"/>
    <path style="fill:#f49828; fill-rule:evenodd;stroke:none;" d="M0 0.3544 L0 0.0001 L138 0 L138 0.3543 L0 0.3544 Z" transform="translate(-1.52588e-05, 36.8971)"/>
    <path style="fill:#f49828; fill-rule:evenodd;stroke:none;" d="M0 0.3544 L0 0.0001 L138 0 L138 0.3543 L0 0.3544 Z" transform="translate(-1.52588e-05, 36.5428)"/>
    <path style="fill:#f49828; fill-rule:evenodd;stroke:none;" d="M0 0.3544 L0 0 L138 0 L138 0.3543 L0 0.3544 Z" transform="translate(-1.52588e-05, 36.1885)"/>
    <path style="fill:#f49828; fill-rule:evenodd;stroke:none;" d="M0 0.3543 L0 0 L138 0 L138 0.3543 L0 0.3543 Z" transform="translate(-1.52588e-05, 35.8342)"/>
    <path style="fill:#f49828; fill-rule:evenodd;stroke:none;" d="M0 0.3543 L0 0 L138 0 L138 0.3543 L0 0.3543 Z" transform="translate(-1.52588e-05, 35.4799)"/>
    <path style="fill:#f49828; fill-rule:evenodd;stroke:none;" d="M0 0.3543 L0 0 L138 0 L138 0.3543 L0 0.3543 Z" transform="translate(-1.52588e-05, 35.1256)"/>
    <path style="fill:#f49828; fill-rule:evenodd;stroke:none;" d="M0 0.3543 L0 0 L138 0 L138 0.3543 L0 0.3543 Z" transform="translate(-1.52588e-05, 34.7713)"/>
    <path style="fill:#f49828; fill-rule:evenodd;stroke:none;" d="M0 0.3543 L0 0 L138 0 L138 0.3543 L0 0.3543 Z" transform="translate(-1.52588e-05, 34.417)"/>
    <path style="fill:#f49828; fill-rule:evenodd;stroke:none;" d="M0 0.3543 L0 0 L138 0 L138 0.3543 L0 0.3543 Z" transform="translate(-1.52588e-05, 34.0627)"/>
    <path style="fill:#f49828; fill-rule:evenodd;stroke:none;" d="M0 0.3543 L0 0 L138 0 L138 0.3543 L0 0.3543 Z" transform="translate(-1.52588e-05, 33.7084)"/>
    <path style="fill:#f49828; fill-rule:evenodd;stroke:none;" d="M0 0.3543 L0 0 L138 0 L138 0.3543 L0 0.3543 Z" transform="translate(-1.52588e-05, 33.3541)"/>
    <path style="fill:#f49828; fill-rule:evenodd;stroke:none;" d="M0 0.3543 L0 0 L138 0 L138 0.3543 L0 0.3543 Z" transform="translate(-1.52588e-05, 32.9998)"/>
    <path style="fill:#f49828; fill-rule:evenodd;stroke:none;" d="M0 0.3543 L0 0 L138 0 L138 0.3543 L0 0.3543 Z" transform="translate(-1.52588e-05, 32.6455)"/>
    <path style="fill:#f49828; fill-rule:evenodd;stroke:none;" d="M0 0.3543 L0 0 L138 0 L138 0.3543 L0 0.3543 Z" transform="translate(-1.52588e-05, 32.2912)"/>
    <path style="fill:#f49828; fill-rule:evenodd;stroke:none;" d="M0 0.3543 L0 0 L138 0 L138 0.3543 L0 0.3543 Z" transform="translate(-1.52588e-05, 31.9369)"/>
    <path style="fill:#f49828; fill-rule:evenodd;stroke:none;" d="M0 0.3543 L0 0 L138 0 L138 0.3543 L0 0.3543 Z" transform="translate(-1.52588e-05, 31.5826)"/>
    <path style="fill:#f49828; fill-rule:evenodd;stroke:none;" d="M0 0.3543 L0 0 L138 0 L138 0.3543 L0 0.3543 Z" transform="translate(-1.52588e-05, 31.2283)"/>
    <path style="fill:#f49828; fill-rule:evenodd;stroke:none;" d="M0 0.3543 L0 0 L138 0 L138 0.3543 L0 0.3543 Z" transform="translate(-1.52588e-05, 30.874)"/>
    <path style="fill:#f49828; fill-rule:evenodd;stroke:none;" d="M0 0.3543 L0 0 L138 0 L138 0.3543 L0 0.3543 Z" transform="translate(-1.52588e-05, 30.5197)"/>
    <path style="fill:#f49828; fill-rule:evenodd;stroke:none;" d="M0 0.3543 L0 0 L138 0 L138 0.3543 L0 0.3543 Z" transform="translate(-1.52588e-05, 30.1654)"/>
    <path style="fill:#f49828; fill-rule:evenodd;stroke:none;" d="M0 0.3543 L0 0 L138 0 L138 0.3543 L0 0.3543 Z" transform="translate(-1.52588e-05, 29.8111)"/>
    <path style="fill:#f49828; fill-rule:evenodd;stroke:none;" d="M0 0.3543 L0 0 L138 0 L138 0.3543 L0 0.3543 Z" transform="translate(-1.52588e-05, 29.4568)"/>
    <path style="fill:#f49828; fill-rule:evenodd;stroke:none;" d="M0 0.3543 L0 0 L138 0 L138 0.3543 L0 0.3543 Z" transform="translate(-1.52588e-05, 29.1025)"/>
    <path style="fill:#f49828; fill-rule:evenodd;stroke:none;" d="M0 0.3543 L0 0 L138 0 L138 0.3543 L0 0.3543 Z" transform="translate(-1.52588e-05, 28.7482)"/>
    <path style="fill:#f49828; fill-rule:evenodd;stroke:none;" d="M0 0.3543 L0 0 L138 0 L138 0.3543 L0 0.3543 Z" transform="translate(-1.52588e-05, 28.3939)"/>
    <path style="fill:#f49828; fill-rule:evenodd;stroke:none;" d="M0 0.3543 L0 0 L138 0 L138 0.3543 L0 0.3543 Z" transform="translate(-1.52588e-05, 28.0396)"/>
    <path style="fill:#f49828; fill-rule:evenodd;stroke:none;" d="M0 0.3543 L0 0 L138 0 L138 0.3543 L0 0.3543 Z" transform="translate(-1.52588e-05, 27.6853)"/>
    <path style="fill:#f49828; fill-rule:evenodd;stroke:none;" d="M0 0.3543 L0 0 L138 0 L138 0.3543 L0 0.3543 Z" transform="translate(-1.52588e-05, 27.331)"/>
    <path style="fill:#f49828; fill-rule:evenodd;stroke:none;" d="M0 0.3543 L0 0 L138 0 L138 0.3543 L0 0.3543 Z" transform="translate(-1.52588e-05, 26.9767)"/>
    <path style="fill:#f49828; fill-rule:evenodd;stroke:none;" d="M0 0.3543 L0 0 L138 0 L138 0.3543 L0 0.3543 Z" transform="translate(-1.52588e-05, 26.6224)"/>
    <path style="fill:#f49828; fill-rule:evenodd;stroke:none;" d="M0 0.3543 L0 0 L138 0 L138 0.3543 L0 0.3543 Z" transform="translate(-1.52588e-05, 26.2681)"/>
    <path style="fill:#f49828; fill-rule:evenodd;stroke:none;" d="M0 0.3543 L0 0 L138 0 L138 0.3543 L0 0.3543 Z" transform="translate(-1.52588e-05, 25.9138)"/>
    <path style="fill:#f49828; fill-rule:evenodd;stroke:none;" d="M0 0.3543 L0 0 L138 0 L138 0.3543 L0 0.3543 Z" transform="translate(-1.52588e-05, 25.5595)"/>
    <path style="fill:#f49828; fill-rule:evenodd;stroke:none;" d="M0 0.3544 L0 0.0001 L138 0 L138 0.3544 L0 0.3544 Z" transform="translate(-1.52588e-05, 25.2051)"/>
    <path style="fill:#f49828; fill-rule:evenodd;stroke:none;" d="M0 0.3544 L0 0 L138 0 L138 0.3543 L0 0.3544 Z" transform="translate(-1.52588e-05, 24.8508)"/>
    <path style="fill:#f49828; fill-rule:evenodd;stroke:none;" d="M0 0.3543 L0 0 L138 0 L138 0.3543 L0 0.3543 Z" transform="translate(-1.52588e-05, 24.4965)"/>
    <path style="fill:#f49828; fill-rule:evenodd;stroke:none;" d="M0 0.3543 L0 0 L138 0 L138 0.3543 L0 0.3543 Z" transform="translate(-1.52588e-05, 24.1422)"/>
    <path style="fill:#f49828; fill-rule:evenodd;stroke:none;" d="M0 0.3543 L0 0 L138 0 L138 0.3543 L0 0.3543 Z" transform="translate(-1.52588e-05, 23.7879)"/>
    <path style="fill:#f49828; fill-rule:evenodd;stroke:none;" d="M0 0.3543 L0 0 L138 0 L138 0.3543 L0 0.3543 Z" transform="translate(-1.52588e-05, 23.4336)"/>
    <path style="fill:#f49828; fill-rule:evenodd;stroke:none;" d="M0 0.3543 L0 0 L138 0 L138 0.3543 L0 0.3543 Z" transform="translate(-1.52588e-05, 23.0793)"/>
    <path style="fill:#f49828; fill-rule:evenodd;stroke:none;" d="M0 0.3543 L0 0 L138 0 L138 0.3543 L0 0.3543 Z" transform="translate(-1.52588e-05, 22.725)"/>
    <path style="fill:#f49828; fill-rule:evenodd;stroke:none;" d="M0 0.3543 L0 0 L138 0 L138 0.3543 L0 0.3543 Z" transform="translate(-1.52588e-05, 22.3707)"/>
    <path style="fill:#f49828; fill-rule:evenodd;stroke:none;" d="M0 0.3543 L0 0 L138 0 L138 0.3543 L0 0.3543 Z" transform="translate(-1.52588e-05, 22.0164)"/>
    <path style="fill:#f49828; fill-rule:evenodd;stroke:none;" d="M0 0.3543 L0 0 L138 0 L138 0.3543 L0 0.3543 Z" transform="translate(-1.52588e-05, 21.6621)"/>
    <path style="fill:#f49828; fill-rule:evenodd;stroke:none;" d="M0 0.3543 L0 0 L138 0 L138 0.3543 L0 0.3543 Z" transform="translate(-1.52588e-05, 21.3078)"/>
    <path style="fill:#f49828; fill-rule:evenodd;stroke:none;" d="M0 0.3543 L0 0 L138 0 L138 0.3543 L0 0.3543 Z" transform="translate(-1.52588e-05, 20.9535)"/>
    <path style="fill:#f49828; fill-rule:evenodd;stroke:none;" d="M0 0.3543 L0 0 L138 0 L138 0.3543 L0 0.3543 Z" transform="translate(-1.52588e-05, 20.5992)"/>
    <path style="fill:#f49828; fill-rule:evenodd;stroke:none;" d="M0 0.3543 L0 0 L138 0 L138 0.3543 L0 0.3543 Z" transform="translate(-1.52588e-05, 20.2449)"/>
    <path style="fill:#f49828; fill-rule:evenodd;stroke:none;" d="M0 0.3543 L0 0 L138 0 L138 0.3543 L0 0.3543 Z" transform="translate(-1.52588e-05, 19.8906)"/>
    <path style="fill:#f49828; fill-rule:evenodd;stroke:none;" d="M0 0.3543 L0 0 L138 0 L138 0.3543 L0 0.3543 Z" transform="translate(-1.52588e-05, 19.5363)"/>
    <path style="fill:#f49828; fill-rule:evenodd;stroke:none;" d="M0 0.3543 L0 0 L138 0 L138 0.3543 L0 0.3543 Z" transform="translate(-1.52588e-05, 19.182)"/>
    <path style="fill:#f49828; fill-rule:evenodd;stroke:none;" d="M0 0.3543 L0 0 L138 0 L138 0.3543 L0 0.3543 Z" transform="translate(-1.52588e-05, 18.8277)"/>
    <path style="fill:#f49828; fill-rule:evenodd;stroke:none;" d="M0 0.3543 L0 0 L138 0 L138 0.3543 L0 0.3543 Z" transform="translate(-1.52588e-05, 18.4734)"/>
    <path style="fill:#f49828; fill-rule:evenodd;stroke:none;" d="M0 0.3543 L0 0 L138 0 L138 0.3543 L0 0.3543 Z" transform="translate(-1.52588e-05, 18.1191)"/>
    <path style="fill:#f49828; fill-rule:evenodd;stroke:none;" d="M0 0.3543 L0 0 L138 0 L138 0.3543 L0 0.3543 Z" transform="translate(-1.52588e-05, 17.7648)"/>
    <path style="fill:#f49828; fill-rule:evenodd;stroke:none;" d="M0 0.3543 L0 0 L138 0 L138 0.3543 L0 0.3543 Z" transform="translate(-1.52588e-05, 17.4105)"/>
    <path style="fill:#f49828; fill-rule:evenodd;stroke:none;" d="M0 0.3543 L0 0 L138 0 L138 0.3543 L0 0.3543 Z" transform="translate(-1.52588e-05, 17.0562)"/>
    <path style="fill:#f49828; fill-rule:evenodd;stroke:none;" d="M0 0.3543 L0 0 L138 0 L138 0.3543 L0 0.3543 Z" transform="translate(-1.52588e-05, 16.7019)"/>
    <path style="fill:#f49828; fill-rule:evenodd;stroke:none;" d="M0 0.3543 L0 0 L138 0 L138 0.3543 L0 0.3543 Z" transform="translate(-1.52588e-05, 16.3476)"/>
    <path style="fill:#f49828; fill-rule:evenodd;stroke:none;" d="M0 0.3543 L0 0 L138 0 L138 0.3543 L0 0.3543 Z" transform="translate(-1.52588e-05, 15.9933)"/>
    <path style="fill:#f49828; fill-rule:evenodd;stroke:none;" d="M0 0.3543 L0 0 L138 0 L138 0.3543 L0 0.3543 Z" transform="translate(-1.52588e-05, 15.639)"/>
    <path style="fill:#f49828; fill-rule:evenodd;stroke:none;" d="M0 0.3543 L0 0 L138 0 L138 0.3543 L0 0.3543 Z" transform="translate(-1.52588e-05, 15.2847)"/>
    <path style="fill:#f49828; fill-rule:evenodd;stroke:none;" d="M0 0.3543 L0 0 L138 0 L138 0.3543 L0 0.3543 Z" transform="translate(-1.52588e-05, 14.9304)"/>
    <path style="fill:#f49828; fill-rule:evenodd;stroke:none;" d="M0 0.3543 L0 0 L138 0 L138 0.3543 L0 0.3543 Z" transform="translate(-1.52588e-05, 14.5761)"/>
    <path style="fill:#f49828; fill-rule:evenodd;stroke:none;" d="M0 0.3543 L0 0 L138 0 L138 0.3543 L0 0.3543 Z" transform="translate(-1.52588e-05, 14.2218)"/>
    <path style="fill:#f49828; fill-rule:evenodd;stroke:none;" d="M0 0.3544 L0 0.0001 L138 0 L138 0.3544 L0 0.3544 Z" transform="translate(-1.52588e-05, 13.8674)"/>
    <path style="fill:#f49828; fill-rule:evenodd;stroke:none;" d="M0 0.3544 L0 0 L138 0 L138 0.3543 L0 0.3544 Z" transform="translate(-1.52588e-05, 13.5131)"/>
    <path style="fill:#f49828; fill-rule:evenodd;stroke:none;" d="M0 0.3543 L0 0 L138 0 L138 0.3543 L0 0.3543 Z" transform="translate(-1.52588e-05, 13.1588)"/>
    <path style="fill:#f49828; fill-rule:evenodd;stroke:none;" d="M0 0.3543 L0 0 L138 0 L138 0.3543 L0 0.3543 Z" transform="translate(-1.52588e-05, 12.8045)"/>
    <path style="fill:#f49828; fill-rule:evenodd;stroke:none;" d="M0 0.3543 L0 0 L138 0 L138 0.3543 L0 0.3543 Z" transform="translate(-1.52588e-05, 12.4502)"/>
    <path style="fill:#f49828; fill-rule:evenodd;stroke:none;" d="M0 0.3543 L0 0 L138 0 L138 0.3543 L0 0.3543 Z" transform="translate(-1.52588e-05, 12.0959)"/>
    <path style="fill:#f49827; fill-rule:evenodd;stroke:none;" d="M0 0.3543 L0 0 L138 0 L138 0.3543 L0 0.3543 Z" transform="translate(-1.52588e-05, 11.7416)"/>
    <path style="fill:#f49827; fill-rule:evenodd;stroke:none;" d="M0 0.3543 L0 0 L138 0 L138 0.3543 L0 0.3543 Z" transform="translate(-1.52588e-05, 11.3873)"/>
    <path style="fill:#f49827; fill-rule:evenodd;stroke:none;" d="M0 0.3543 L0 0 L138 0 L138 0.3543 L0 0.3543 Z" transform="translate(-1.52588e-05, 11.033)"/>
    <path style="fill:#f49827; fill-rule:evenodd;stroke:none;" d="M0 0.3543 L0 0 L138 0 L138 0.3543 L0 0.3543 Z" transform="translate(-1.52588e-05, 10.6787)"/>
    <path style="fill:#f49827; fill-rule:evenodd;stroke:none;" d="M0 0.3543 L0 0 L138 0 L138 0.3543 L0 0.3543 Z" transform="translate(-1.52588e-05, 10.3244)"/>
    <path style="fill:#f49827; fill-rule:evenodd;stroke:none;" d="M0 0.35429 L0 1e-05 L138 0 L138 0.35429 L0 0.35429 Z" transform="translate(-1.52588e-05, 9.97011)"/>
    <path style="fill:#f49827; fill-rule:evenodd;stroke:none;" d="M0 0.35431 L0 0 L138 0 L138 0.3543 L0 0.35431 Z" transform="translate(-1.52588e-05, 9.61581)"/>
    <path style="fill:#f49827; fill-rule:evenodd;stroke:none;" d="M0 0.3543 L0 0 L138 0 L138 0.3543 L0 0.3543 Z" transform="translate(-1.52588e-05, 9.26151)"/>
    <path style="fill:#f49827; fill-rule:evenodd;stroke:none;" d="M0 0.35431 L0 1e-05 L138 0 L138 0.35431 L0 0.35431 Z" transform="translate(-1.52588e-05, 8.9072)"/>
    <path style="fill:#f49827; fill-rule:evenodd;stroke:none;" d="M0 0.35431 L0 1e-05 L138 0 L138 0.3543 L0 0.35431 Z" transform="translate(-1.52588e-05, 8.5529)"/>
    <path style="fill:#f49827; fill-rule:evenodd;stroke:none;" d="M0 0.35431 L0 0 L138 0 L138 0.3543 L0 0.35431 Z" transform="translate(-1.52588e-05, 8.1986)"/>
    <path style="fill:#f49827; fill-rule:evenodd;stroke:none;" d="M0 0.3543 L0 0 L138 0 L138 0.3543 L0 0.3543 Z" transform="translate(-1.52588e-05, 7.8443)"/>
    <path style="fill:#f49827; fill-rule:evenodd;stroke:none;" d="M0 0.35431 L0 0 L138 0 L138 0.35431 L0 0.35431 Z" transform="translate(-1.52588e-05, 7.48999)"/>
    <path style="fill:#f49827; fill-rule:evenodd;stroke:none;" d="M0 0.3543 L0 0 L138 0 L138 0.3543 L0 0.3543 Z" transform="translate(-1.52588e-05, 7.13569)"/>
    <path style="fill:#f49827; fill-rule:evenodd;stroke:none;" d="M0 0.35431 L0 1e-05 L138 0 L138 0.35431 L0 0.35431 Z" transform="translate(-1.52588e-05, 6.78138)"/>
    <path style="fill:#f49827; fill-rule:evenodd;stroke:none;" d="M0 0.35431 L0 1e-05 L138 0 L138 0.3543 L0 0.35431 Z" transform="translate(-1.52588e-05, 6.42708)"/>
    <path style="fill:#f49827; fill-rule:evenodd;stroke:none;" d="M0 0.35431 L0 0 L138 0 L138 0.3543 L0 0.35431 Z" transform="translate(-1.52588e-05, 6.07278)"/>
    <path style="fill:#f49827; fill-rule:evenodd;stroke:none;" d="M0 0.3543 L0 0 L138 0 L138 0.3543 L0 0.3543 Z" transform="translate(-1.52588e-05, 5.71848)"/>
    <path style="fill:#f49827; fill-rule:evenodd;stroke:none;" d="M0 0.35431 L0 1e-05 L138 0 L138 0.35431 L0 0.35431 Z" transform="translate(-1.52588e-05, 5.36417)"/>
    <path style="fill:#f49827; fill-rule:evenodd;stroke:none;" d="M0 0.35431 L0 0 L138 0 L138 0.3543 L0 0.35431 Z" transform="translate(-1.52588e-05, 5.00987)"/>
    <path style="fill:#f49827; fill-rule:evenodd;stroke:none;" d="M0 0.3543 L0 0 L138 0 L138 0.3543 L0 0.3543 Z" transform="translate(-1.52588e-05, 4.65557)"/>
    <path style="fill:#f49827; fill-rule:evenodd;stroke:none;" d="M0 0.35431 L0 1e-05 L138 0 L138 0.35431 L0 0.35431 Z" transform="translate(-1.52588e-05, 4.30126)"/>
    <path style="fill:#f49827; fill-rule:evenodd;stroke:none;" d="M0 0.35431 L0 0 L138 0 L138 0.3543 L0 0.35431 Z" transform="translate(-1.52588e-05, 3.94696)"/>
    <path style="fill:#f49827; fill-rule:evenodd;stroke:none;" d="M0 0.3543 L0 0 L138 0 L138 0.3543 L0 0.3543 Z" transform="translate(-1.52588e-05, 3.59266)"/>
    <path style="fill:#f49826; fill-rule:evenodd;stroke:none;" d="M0 0.35431 L0 1e-05 L138 0 L138 0.35431 L0 0.35431 Z" transform="translate(-1.52588e-05, 3.23835)"/>
    <path style="fill:#f49726; fill-rule:evenodd;stroke:none;" d="M0 0.35431 L0 1e-05 L138 0 L138 0.3543 L0 0.35431 Z" transform="translate(-1.52588e-05, 2.88405)"/>
    <path style="fill:#f49726; fill-rule:evenodd;stroke:none;" d="M0 0.35431 L0 0 L138 0 L138 0.3543 L0 0.35431 Z" transform="translate(-1.52588e-05, 2.52975)"/>
    <path style="fill:#f49726; fill-rule:evenodd;stroke:none;" d="M0 0.3543 L0 0 L138 0 L138 0.3543 L0 0.3543 Z" transform="translate(-1.52588e-05, 2.17545)"/>
    <path style="fill:#f49726; fill-rule:evenodd;stroke:none;" d="M0 0.35431 L0 0 L138 0 L138 0.35431 L0 0.35431 Z" transform="translate(-1.52588e-05, 1.82114)"/>
    <path style="fill:#f49726; fill-rule:evenodd;stroke:none;" d="M0 0.3543 L0 0 L138 0 L138 0.3543 L0 0.3543 Z" transform="translate(-1.52588e-05, 1.46684)"/>
    <path style="fill:#f49726; fill-rule:evenodd;stroke:none;" d="M0 0.35431 L0 1e-05 L138 0 L138 0.35431 L0 0.35431 Z" transform="translate(-1.52588e-05, 1.11253)"/>
    <path style="fill:#f49726; fill-rule:evenodd;stroke:none;" d="M0 0.354308 L0 8e-06 L138 0 L138 0.354298 L0 0.354308 Z" transform="translate(-1.52588e-05, 0.758232)"/>
    <path style="fill:#f49726; fill-rule:evenodd;stroke:none;" d="M0 0.354309 L0 7e-06 L138 0 L138 0.354301 L0 0.354309 Z" transform="translate(-1.52588e-05, 0.403931)"/>
    <path style="fill:#f49726; fill-rule:evenodd;stroke:none;" d="M0 0.354309 L0 7.6e-06 L138 0 L138 0.354302 L0 0.354309 Z" transform="translate(-1.52588e-05, 0.0496292)"/>
    <path style="fill:#f49726; fill-rule:evenodd;stroke:none;" d="M0 0.354317 L0 8e-06 L138 0 L138 0.354309 L0 0.354317 Z" transform="translate(-1.52588e-05, -0.30468)"/>
    <path style="fill:#f49726; fill-rule:evenodd;stroke:none;" d="M0 0.354309 L0 7e-06 L138 0 L138 0.354301 L0 0.354309 Z" transform="translate(-1.52588e-05, -0.658981)"/>
    <path style="fill:#f49726; fill-rule:evenodd;stroke:none;" d="M0 0.354306 L0 0 L138 0 L138 0.354299 L0 0.354306 Z" transform="translate(-1.52588e-05, -1.01328)"/>
    <path style="fill:#f49726; fill-rule:evenodd;stroke:none;" d="M0 0.3543 L0 0 L138 0 L138 0.3543 L0 0.3543 Z" transform="translate(-1.52588e-05, -1.36758)"/>
    <path style="fill:#f49726; fill-rule:evenodd;stroke:none;" d="M0 0.35431 L0 0 L138 0 L138 0.35431 L0 0.35431 Z" transform="translate(-1.52588e-05, -1.72189)"/>
    <path style="fill:#f49726; fill-rule:evenodd;stroke:none;" d="M0 0.3543 L0 0 L138 0 L138 0.3543 L0 0.3543 Z" transform="translate(-1.52588e-05, -2.07619)"/>
    <path style="fill:#f49724; fill-rule:evenodd;stroke:none;" d="M0 0.35431 L0 1e-05 L138 0 L138 0.35431 L0 0.35431 Z" transform="translate(-1.52588e-05, -2.4305)"/>
    <path style="fill:#f49724; fill-rule:evenodd;stroke:none;" d="M0 0.35431 L0 1e-05 L138 0 L138 0.3543 L0 0.35431 Z" transform="translate(-1.52588e-05, -2.7848)"/>
    <path style="fill:#f49724; fill-rule:evenodd;stroke:none;" d="M0 0.35431 L0 1e-05 L138 0 L138 0.3543 L0 0.35431 Z" transform="translate(-1.52588e-05, -3.1391)"/>
    <path style="fill:#f49724; fill-rule:evenodd;stroke:none;" d="M0 0.35432 L0 1e-05 L138 0 L138 0.35431 L0 0.35432 Z" transform="translate(-1.52588e-05, -3.49341)"/>
    <path style="fill:#f49724; fill-rule:evenodd;stroke:none;" d="M0 0.35431 L0 1e-05 L138 0 L138 0.3543 L0 0.35431 Z" transform="translate(-1.52588e-05, -3.84771)"/>
    <path style="fill:#f49724; fill-rule:evenodd;stroke:none;" d="M0 0.35431 L0 1e-05 L138 0 L138 0.3543 L0 0.35431 Z" transform="translate(-1.52588e-05, -4.20201)"/>
    <path style="fill:#f49724; fill-rule:evenodd;stroke:none;" d="M0 0.35431 L0 1e-05 L138 0 L138 0.3543 L0 0.35431 Z" transform="translate(-1.52588e-05, -4.55631)"/>
    <path style="fill:#f49724; fill-rule:evenodd;stroke:none;" d="M0 0.35432 L0 1e-05 L138 0 L138 0.35431 L0 0.35432 Z" transform="translate(-1.52588e-05, -4.91062)"/>
    <path style="fill:#f49724; fill-rule:evenodd;stroke:none;" d="M0 0.35431 L0 0 L138 0 L138 0.3543 L0 0.35431 Z" transform="translate(-1.52588e-05, -5.26492)"/>
    <path style="fill:#f49724; fill-rule:evenodd;stroke:none;" d="M0 0.3543 L0 0 L138 0 L138 0.3543 L0 0.3543 Z" transform="translate(-1.52588e-05, -5.61922)"/>
    <path style="fill:#f49724; fill-rule:evenodd;stroke:none;" d="M0 0.35431 L0 1e-05 L138 0 L138 0.35431 L0 0.35431 Z" transform="translate(-1.52588e-05, -5.97353)"/>
    <path style="fill:#f49723; fill-rule:evenodd;stroke:none;" d="M0 0.35431 L0 1e-05 L138 0 L138 0.3543 L0 0.35431 Z" transform="translate(-1.52588e-05, -6.32783)"/>
    <path style="fill:#f49723; fill-rule:evenodd;stroke:none;" d="M0 0.35432 L0 1e-05 L138 0 L138 0.35431 L0 0.35432 Z" transform="translate(-1.52588e-05, -6.68214)"/>
    <path style="fill:#f49723; fill-rule:evenodd;stroke:none;" d="M0 0.35431 L0 1e-05 L138 0 L138 0.3543 L0 0.35431 Z" transform="translate(-1.52588e-05, -7.03644)"/>
    <path style="fill:#f49723; fill-rule:evenodd;stroke:none;" d="M0 0.35431 L0 1e-05 L138 0 L138 0.3543 L0 0.35431 Z" transform="translate(-1.52588e-05, -7.39074)"/>
    <path style="fill:#f49723; fill-rule:evenodd;stroke:none;" d="M0 0.35431 L0 1e-05 L138 0 L138 0.3543 L0 0.35431 Z" transform="translate(-1.52588e-05, -7.74504)"/>
    <path style="fill:#f49723; fill-rule:evenodd;stroke:none;" d="M0 0.35432 L0 1e-05 L138 0 L138 0.35431 L0 0.35432 Z" transform="translate(-1.52588e-05, -8.09935)"/>
    <path style="fill:#f49723; fill-rule:evenodd;stroke:none;" d="M0 0.35431 L0 1e-05 L138 0 L138 0.3543 L0 0.35431 Z" transform="translate(-1.52588e-05, -8.45365)"/>
    <path style="fill:#f49723; fill-rule:evenodd;stroke:none;" d="M0 0.35431 L0 0 L138 0 L138 0.3543 L0 0.35431 Z" transform="translate(-1.52588e-05, -8.80795)"/>
    <path style="fill:#f49723; fill-rule:evenodd;stroke:none;" d="M0 0.3543 L0 0 L138 0 L138 0.3543 L0 0.3543 Z" transform="translate(-1.52588e-05, -9.16225)"/>
    <path style="fill:#f49721; fill-rule:evenodd;stroke:none;" d="M0 0.35431 L0 1e-05 L138 0 L138 0.35431 L0 0.35431 Z" transform="translate(-1.52588e-05, -9.51656)"/>
    <path style="fill:#f49721; fill-rule:evenodd;stroke:none;" d="M0 0.35431 L0 0 L138 0 L138 0.3543 L0 0.35431 Z" transform="translate(-1.52588e-05, -9.87086)"/>
    <path style="fill:#f49721; fill-rule:evenodd;stroke:none;" d="M0 0.35434 L0 0 L138 0 L138 0.35434 L0 0.35434 Z" transform="translate(-1.52588e-05, -10.2252)"/>
    <path style="fill:#f49721; fill-rule:evenodd;stroke:none;" d="M0 0.3543 L0 0 L138 0 L138 0.3543 L0 0.3543 Z" transform="translate(-1.52588e-05, -10.5795)"/>
    <path style="fill:#f49721; fill-rule:evenodd;stroke:none;" d="M0 0.3543 L0 0 L138 0 L138 0.3543 L0 0.3543 Z" transform="translate(-1.52588e-05, -10.9338)"/>
    <path style="fill:#f49721; fill-rule:evenodd;stroke:none;" d="M0 0.3543 L0 0 L138 0 L138 0.3543 L0 0.3543 Z" transform="translate(-1.52588e-05, -11.2881)"/>
    <path style="fill:#f49621; fill-rule:evenodd;stroke:none;" d="M0 0.3543 L0 0 L138 0 L138 0.3543 L0 0.3543 Z" transform="translate(-1.52588e-05, -11.6424)"/>
    <path style="fill:#f49621; fill-rule:evenodd;stroke:none;" d="M0 0.3543 L0 0 L138 0 L138 0.3543 L0 0.3543 Z" transform="translate(-1.52588e-05, -11.9967)"/>
    <path style="fill:#f49620; fill-rule:evenodd;stroke:none;" d="M0 0.3543 L0 0 L138 0 L138 0.3543 L0 0.3543 Z" transform="translate(-1.52588e-05, -12.351)"/>
    <path style="fill:#f49620; fill-rule:evenodd;stroke:none;" d="M0 0.3543 L0 0 L138 0 L138 0.3543 L0 0.3543 Z" transform="translate(-1.52588e-05, -12.7053)"/>
    <path style="fill:#f49620; fill-rule:evenodd;stroke:none;" d="M0 0.3543 L0 0 L138 0 L138 0.3543 L0 0.3543 Z" transform="translate(-1.52588e-05, -13.0596)"/>
    <path style="fill:#f49620; fill-rule:evenodd;stroke:none;" d="M0 0.3543 L0 0 L138 0 L138 0.3543 L0 0.3543 Z" transform="translate(-1.52588e-05, -13.4139)"/>
    <path style="fill:#f49620; fill-rule:evenodd;stroke:none;" d="M0 0.3543 L0 0 L138 0 L138 0.3543 L0 0.3543 Z" transform="translate(-1.52588e-05, -13.7682)"/>
    <path style="fill:#f49620; fill-rule:evenodd;stroke:none;" d="M0 0.3543 L0 0 L138 0 L138 0.3543 L0 0.3543 Z" transform="translate(-1.52588e-05, -14.1225)"/>
    <path style="fill:#f49620; fill-rule:evenodd;stroke:none;" d="M0 0.3543 L0 0 L138 0 L138 0.3543 L0 0.3543 Z" transform="translate(-1.52588e-05, -14.4768)"/>
    <path style="fill:#f4961e; fill-rule:evenodd;stroke:none;" d="M0 0.3543 L0 0 L138 0 L138 0.3543 L0 0.3543 Z" transform="translate(-1.52588e-05, -14.8311)"/>
    <path style="fill:#f4961e; fill-rule:evenodd;stroke:none;" d="M0 0.3543 L0 0 L138 0 L138 0.3543 L0 0.3543 Z" transform="translate(-1.52588e-05, -15.1854)"/>
    <path style="fill:#f4961e; fill-rule:evenodd;stroke:none;" d="M0 0.3543 L0 0 L138 0 L138 0.3543 L0 0.3543 Z" transform="translate(-1.52588e-05, -15.5397)"/>
    <path style="fill:#f4961e; fill-rule:evenodd;stroke:none;" d="M0 0.3543 L0 0 L138 0 L138 0.3543 L0 0.3543 Z" transform="translate(-1.52588e-05, -15.894)"/>
    <path style="fill:#f4961e; fill-rule:evenodd;stroke:none;" d="M0 0.3543 L0 0 L138 0 L138 0.3543 L0 0.3543 Z" transform="translate(-1.52588e-05, -16.2483)"/>
    <path style="fill:#f4961e; fill-rule:evenodd;stroke:none;" d="M0 0.3543 L0 0 L138 0 L138 0.3543 L0 0.3543 Z" transform="translate(-1.52588e-05, -16.6026)"/>
    <path style="fill:#f4961e; fill-rule:evenodd;stroke:none;" d="M0 0.3543 L0 0 L138 0 L138 0.3543 L0 0.3543 Z" transform="translate(-1.52588e-05, -16.9569)"/>
    <path style="fill:#f4961d; fill-rule:evenodd;stroke:none;" d="M0 0.3543 L0 0 L138 0 L138 0.3543 L0 0.3543 Z" transform="translate(-1.52588e-05, -17.3112)"/>
    <path style="fill:#f4961d; fill-rule:evenodd;stroke:none;" d="M0 0.3543 L0 0 L138 0 L138 0.3543 L0 0.3543 Z" transform="translate(-1.52588e-05, -17.6655)"/>
    <path style="fill:#f4961d; fill-rule:evenodd;stroke:none;" d="M0 0.3543 L0 0 L138 0 L138 0.3543 L0 0.3543 Z" transform="translate(-1.52588e-05, -18.0198)"/>
    <path style="fill:#f4961d; fill-rule:evenodd;stroke:none;" d="M0 0.3543 L0 0 L138 0 L138 0.3543 L0 0.3543 Z" transform="translate(-1.52588e-05, -18.3741)"/>
    <path style="fill:#f4961d; fill-rule:evenodd;stroke:none;" d="M0 0.3543 L0 0 L138 0 L138 0.3543 L0 0.3543 Z" transform="translate(-1.52588e-05, -18.7284)"/>
    <path style="fill:#f4961c; fill-rule:evenodd;stroke:none;" d="M0 0.3543 L0 0 L138 0 L138 0.3543 L0 0.3543 Z" transform="translate(-1.52588e-05, -19.0827)"/>
    <path style="fill:#f4961c; fill-rule:evenodd;stroke:none;" d="M0 0.3543 L0 0 L138 0 L138 0.3543 L0 0.3543 Z" transform="translate(-1.52588e-05, -19.437)"/>
    <path style="fill:#f4951c; fill-rule:evenodd;stroke:none;" d="M0 0.3544 L0 0.0001 L138 0 L138 0.3544 L0 0.3544 Z" transform="translate(-1.52588e-05, -19.7914)"/>
    <path style="fill:#f4951c; fill-rule:evenodd;stroke:none;" d="M0 0.3544 L0 0.0001 L138 0 L138 0.3543 L0 0.3544 Z" transform="translate(-1.52588e-05, -20.1457)"/>
    <path style="fill:#f4951c; fill-rule:evenodd;stroke:none;" d="M0 0.3544 L0 0.0001 L138 0 L138 0.3543 L0 0.3544 Z" transform="translate(-1.52588e-05, -20.5)"/>
    <path style="fill:#f4951a; fill-rule:evenodd;stroke:none;" d="M0 0.3544 L0 0.0001 L138 0 L138 0.3543 L0 0.3544 Z" transform="translate(-1.52588e-05, -20.8543)"/>
    <path style="fill:#f4951a; fill-rule:evenodd;stroke:none;" d="M0 0.3544 L0 0 L138 0 L138 0.3543 L0 0.3544 Z" transform="translate(-1.52588e-05, -21.2086)"/>
    <path style="fill:#f4951a; fill-rule:evenodd;stroke:none;" d="M0 0.3543 L0 0 L138 0 L138 0.3543 L0 0.3543 Z" transform="translate(-1.52588e-05, -21.5629)"/>
    <path style="fill:#f4951a; fill-rule:evenodd;stroke:none;" d="M7.6294e-06 0.3543 L0 0 L138 0 L138 0.3543 L7.6294e-06 0.3543 Z" transform="translate(-2.28882e-05, -21.9172)"/>
    <path style="fill:#f4951a; fill-rule:evenodd;stroke:none;" d="M0 0.3543 L0 0 L138 0 L138 0.3543 L0 0.3543 Z" transform="translate(-2.28882e-05, -22.2715)"/>
    <path style="fill:#f49519; fill-rule:evenodd;stroke:none;" d="M0 0.3543 L0 0 L138 0 L138 0.3543 L0 0.3543 Z" transform="translate(-2.28882e-05, -22.6258)"/>
    <path style="fill:#f49519; fill-rule:evenodd;stroke:none;" d="M0 0.3543 L0 0 L138 0 L138 0.3543 L0 0.3543 Z" transform="translate(-2.28882e-05, -22.9801)"/>
    <path style="fill:#f49519; fill-rule:evenodd;stroke:none;" d="M0 0.3543 L0 0 L138 0 L138 0.3543 L0 0.3543 Z" transform="translate(-2.28882e-05, -23.3344)"/>
    <path style="fill:#f49519; fill-rule:evenodd;stroke:none;" d="M0 0.3543 L0 0 L138 0 L138 0.3543 L0 0.3543 Z" transform="translate(-2.28882e-05, -23.6887)"/>
    <path style="fill:#f49517; fill-rule:evenodd;stroke:none;" d="M0 0.3543 L0 0 L138 0 L138 0.3543 L0 0.3543 Z" transform="translate(-2.28882e-05, -24.043)"/>
    <path style="fill:#f49517; fill-rule:evenodd;stroke:none;" d="M0 0.3543 L0 0 L138 0 L138 0.3543 L0 0.3543 Z" transform="translate(-2.28882e-05, -24.3973)"/>
    <path style="fill:#f49517; fill-rule:evenodd;stroke:none;" d="M0 0.3543 L0 0 L138 0 L138 0.3543 L0 0.3543 Z" transform="translate(-2.28882e-05, -24.7516)"/>
    <path style="fill:#f49517; fill-rule:evenodd;stroke:none;" d="M0 0.3543 L0 0 L138 0 L138 0.3543 L0 0.3543 Z" transform="translate(-2.28882e-05, -25.1059)"/>
   </g>
   <path style="fill:#000000; fill-rule:nonzero;stroke:none;" d="M98.8184 58.4066 C98.8184 66.3566 96.9199 73.7656 93.126 80.6376 C89.3301 87.5086 84.2041 92.8146 77.7461 96.5526 C71.2871 100.292 64.1963 102.162 56.4746 102.162 C48.751 102.162 41.6611 100.292 35.2031 96.5526 C28.7441 92.8146 23.6182 87.5086 19.8232 80.6376 C16.0283 73.7656 14.1309 66.3566 14.1309 58.4066 C14.1309 46.0781 18.292 35.5694 26.6143 26.8789 C34.9355 18.1895 44.8906 13.8438 56.4746 13.8438 C61.9854 13.8438 67.1289 14.8496 71.915 16.8389 C72.3936 11.8037 74.1611 7.1172 76.1182 3.291 C70.0947 1.1065 63.5674 0 56.5244 0 C39.7764 0 25.9189 6.1641 14.9541 18.4922 C4.9834 29.6758 0 42.8799 0 58.1036 C0 73.4626 5.2666 86.8866 15.8008 98.3716 C26.334 109.859 39.9082 115.601 56.5244 115.601 C73.0723 115.601 86.6143 109.859 97.1484 98.3716 C107.682 86.8866 112.949 73.4626 112.949 58.1036 C112.949 49.8848 111.495 42.2647 108.615 35.2315 C103.779 38.2061 99.1836 39.7637 95.377 40.5567 C97.6641 46.0108 98.8184 51.957 98.8184 58.4066 Z" transform="translate(0, 45.3994)"/>
  </g>
 </g>
</svg>
